<?xml version="1.0"?>
<svg xmlns="http://www.w3.org/2000/svg" xmlns:xlink="http://www.w3.org/1999/xlink" width="100" height="40" viewBox="0 0 582.92 235.27">
<defs>
    <linearGradient id="b">
        <stop stop-color="#366a96" offset="0"/>
        <stop stop-color="#3679b0" offset="1"/>
    </linearGradient>
    <linearGradient id="d">
        <stop stop-color="#ffc836" offset="0"/>
        <stop stop-color="#ffe873" offset="1"/>
    </linearGradient>
    <linearGradient id="c" x1="224.24" x2="-65.309" y1="144.76" y2="144.76" gradientUnits="userSpaceOnUse" xlink:href="#d"/>
    <linearGradient id="a" x1="172.94" x2="26.67" y1="77.476" y2="76.313" gradientUnits="userSpaceOnUse" xlink:href="#b"/>
</defs>
<g>
    <path d="m289.25 74.345c0-14.562-4.1523-22.038-12.457-22.448-3.3043-0.15595-6.5306 0.37039-9.6691 1.5888-2.505 0.89673-4.1912 1.7837-5.0782 2.6804v34.758c5.3122 3.3335 10.03 4.8833 14.143 4.6396 8.7042-0.57508 13.061-7.6417 13.061-21.219zm10.244 0.60432c0 7.398-1.735 13.539-5.2244 18.422-3.8891 5.5266-9.2792 8.3727-16.17 8.5287-5.1952 0.1657-10.546-1.4621-16.053-4.8736v31.59l-8.9088-3.1776v-70.121c1.4621-1.7935 3.3432-3.3335 5.6241-4.6396 5.3024-3.0898 11.745-4.6786 19.328-4.7566l0.12671 0.12671c6.9302-0.087724 12.272 2.7584 16.024 8.5287 3.4992 5.2927 5.2537 12.077 5.2537 20.371z" fill="#646464"/>
    <path d="m353.94 95.681c0 9.9225-0.9942 16.794-2.9826 20.615-1.9982 3.8209-5.7995 6.8717-11.414 9.1428-4.5519 1.7935-9.4742 2.7682-14.757 2.9339l-1.4718-5.6143c5.3706-0.73103 9.1525-1.4621 11.346-2.1931 4.318-1.4621 7.2811-3.7039 8.9088-6.706 1.3061-2.4465 1.9494-7.1154 1.9494-14.026v-2.3198c-6.0919 2.7682-12.476 4.1425-19.153 4.1425-4.3862 0-8.2558-1.3743-11.589-4.1425-3.7429-3.0119-5.6143-6.8327-5.6143-11.463v-37.078l8.9088-3.0508v37.322c0 3.9866 1.2866 7.0569 3.8598 9.211s5.9067 3.1873 9.9908 3.1093c4.084-0.087724 8.4605-1.6668 13.11-4.7566v-43.54h8.9088v48.414z" fill="#646464"/>
    <path d="m388.72 101.41c-1.0624 0.08772-2.0371 0.12671-2.9339 0.12671-5.0392 0-8.9673-1.1989-11.774-3.6064-2.7974-2.4075-4.201-5.7313-4.201-9.9713v-35.09h-6.1017v-5.6046h6.1017v-14.884l8.8991-3.1678v18.052h10.01v5.6046h-10.01v34.846c0 3.3433 0.89673 5.7118 2.6902 7.0959 1.54 1.1404 3.9866 1.7935 7.3201 1.9592v4.6396z" fill="#646464"/>
    <path d="m442.66 100.68h-8.9088v-34.388c0-3.4992-0.81876-6.5111-2.4465-9.0258-1.8812-2.8462-4.4934-4.2692-7.8464-4.2692-4.084 0-9.1915 2.1541-15.322 6.4623v41.22h-8.9088v-82.197l8.9088-2.8072v37.439c5.6923-4.1425 11.911-6.2186 18.666-6.2186 4.7176 0 8.5384 1.5888 11.463 4.7566 2.9339 3.1678 4.3959 7.1154 4.3959 11.833v37.195z" fill="#646464"/>
    <path d="m490.01 72.941c0-5.5948-1.0624-10.215-3.1776-13.87-2.5148-4.4544-6.4233-6.8035-11.706-7.0471-9.7666 0.56533-14.64 7.5637-14.64 20.976 0 6.1504 1.0137 11.287 3.0606 15.41 2.6122 5.2537 6.5306 7.8464 11.755 7.7587 9.8056-0.077977 14.708-7.8172 14.708-23.227zm9.7568 0.058482c0 7.9634-2.0371 14.591-6.1017 19.884-4.4739 5.9262-10.654 8.8991-18.539 8.8991-7.8172 0-13.909-2.9729-18.305-8.8991-3.9866-5.2927-5.975-11.921-5.975-19.884 0-7.4858 2.1541-13.782 6.4623-18.909 4.5519-5.4389 10.537-8.1681 17.935-8.1681s13.422 2.7292 18.061 8.1681c4.3082 5.127 6.4623 11.424 6.4623 18.909z" fill="#646464"/>
    <path d="m550.84 100.68h-8.9088v-36.337c0-3.9866-1.1989-7.0959-3.5967-9.3377-2.3978-2.2321-5.5948-3.314-9.5814-3.2263-4.2302 0.077977-8.2558 1.4621-12.077 4.1425v44.759h-8.9088v-45.86c5.127-3.7331 9.8446-6.1699 14.153-7.3103 4.0645-1.0624 7.6515-1.5888 10.741-1.5888 2.1151 0 4.1035 0.20469 5.975 0.61407 3.4992 0.80901 6.3454 2.3101 8.5384 4.5129 2.4465 2.4368 3.6649 5.3609 3.6649 8.7821v40.85z" fill="#646464"/>
    <path d="m77.67 47.068c0-13.623 3.6528-21.034 23.822-24.563 13.693-2.3999 31.251-2.6999 47.627 0 12.935 2.1352 23.822 11.77 23.822 24.563v44.945c0 13.182-10.57 23.981-23.822 23.981h-47.627c-16.164 0-29.787 13.782-29.787 29.363v21.564h-16.376c-13.852 0-21.917-9.9877-25.305-23.964-4.5704-18.776-4.3763-29.963 0-47.945 3.7939-15.687 15.917-23.964 29.769-23.964h17.876 47.645v-5.9997h-47.645v-17.981z" fill="url(#a)"/>
    <path d="m172.94 190.9c0 13.623-11.823 20.523-23.822 23.964-18.052 5.188-32.54 4.3939-47.627 0-12.599-3.6704-23.822-11.17-23.822-23.964v-44.945c0-12.935 10.782-23.981 23.822-23.981h47.627c15.864 0 29.787-13.711 29.787-29.963v-20.964h17.858c13.87 0 20.399 10.305 23.822 23.964 4.7645 18.97 4.9762 33.157 0 47.945-4.8174 14.364-9.9701 23.964-23.822 23.964h-23.822-47.627v5.9997h47.627v17.981z" fill="url(#c)"/>
    <path d="m89.582 44.086c0-4.9762 3.988-8.9996 8.929-8.9996 4.9233 0 8.929 4.0233 8.929 8.9996 0 4.9586-4.0057 8.9819-8.929 8.9819-4.9409 0-8.929-4.0233-8.929-8.9819z" fill="#fff"/>
    <path d="m143.17 193.88c0-4.9586 4.0057-8.9819 8.929-8.9819 4.9409 0 8.929 4.0233 8.929 8.9819 0 4.9762-3.988 8.9996-8.929 8.9996-4.9233 0-8.929-4.0233-8.929-8.9996z" fill="#fff"/>
    <path transform="matrix(1 0 -.018518 1 0 0)" d="m293.11 179.8c-4e-5 5.8166-1.3743 10.643-4.1228 14.478-3.0681 4.3465-7.3188 6.5836-12.752 6.7115-4.0908 0.12784-8.3095-1.1505-12.656-3.8351v24.832l-6.9032-2.4928 0.09587-55.13c1.1505-1.4062 2.6207-2.6206 4.4104-3.6434 4.1547-2.4289 9.2043-3.6753 15.149-3.7393l0.09588 0.09588c5.4331-0.06387 9.6198 2.1733 12.56 6.7115 2.7485 4.1548 4.1227 9.492 4.1228 16.012m-8.0538-0.47939c-4e-5 -11.441-3.2919-17.322-9.8755-17.642-2.6207-0.1278-5.1774 0.28768-7.6703 1.2464-1.9815 0.70315-3.3238 1.4062-4.0269 2.1093v27.325c4.2186 2.6207 7.9579 3.8351 11.218 3.6434 6.9032-0.44742 10.355-6.0084 10.355-16.683m52.321-1.0547c-4e-5 6.2641-1.598 11.473-4.7939 15.628-3.5156 4.6661-8.3734 6.9991-14.574 6.9991-6.1362 0-10.93-2.333-14.382-6.9991-3.132-4.1547-4.698-9.3641-4.698-15.628-1e-5 -5.8805 1.6938-10.834 5.0816-14.861 3.5794-4.2825 8.2775-6.4238 14.094-6.4238 5.8166 5e-5 10.547 2.1413 14.19 6.4238 3.3877 4.0269 5.0815 8.9806 5.0816 14.861m-7.6703 0c-4e-5 -4.4104-0.83098-8.0538-2.4928-10.93-1.9815-3.5155-5.0496-5.3692-9.2043-5.561-7.6703 0.44747-11.505 5.9445-11.505 16.491h0.09588c-1e-5 4.8579 0.79897 8.9167 2.397 12.177 2.0454 4.1547 5.1135 6.2001 9.2043 6.1362 7.6702-0.06391 11.505-6.1682 11.505-18.313m68.451-19.751-11.41 40.269-5.7527 2.0134-11.026-33.462-9.0126 31.448-5.7527 2.0134-13.519-41.515 6.4238-2.3011 10.738 32.695 8.5332-30.393 6.4238-2.3011 10.834 32.695 9.2043-32.695 4.3145 1.5341m37.79 37.68c-2.6846 1.7258-5.0816 2.9083-7.1909 3.5475-2.5568 0.76703-5.1455 1.1505-7.7662 1.1505-4.6661 0-8.3734-1.1825-11.122-3.5475-4.9857-4.2186-7.4466-10.099-7.3826-17.642 0.06392-6.2001 1.3423-11.314 3.8351-15.341 3.0042-4.73 7.3507-7.095 13.039-7.095 10.611 4e-5 16.012 6.9992 16.203 20.997h-25.695c-0.38352 5.4331 0.63918 9.8435 3.0681 13.231 2.4289 3.3238 5.6248 4.9218 9.5878 4.7939 3.3238-0.12784 7.2548-1.2784 11.793-3.4516l1.6299 3.3557m-7.3826-21.956c-2e-5 -3.3877-0.70313-6.264-2.1093-8.629-1.6619-2.6846-3.931-4.0269-6.8074-4.0269-5.7527 3e-5 -8.9486 4.1867-9.5878 12.56l18.505 0.09588m41.312-17.066c-0.63921 1.2784-1.566 3.164-2.7805 5.6568-1.7898-0.38347-3.1001-0.57523-3.931-0.57527h-0.09588c-3.8352 4e-5 -7.2548 1.2784-10.259 3.8351v33.941h-6.9991v-34.9c2.6207-2.9402 5.9444-5.1135 9.9714-6.5197 3.5155-1.2783 6.6476-1.9175 9.3961-1.9176 1.534 4e-5 3.1 0.15984 4.698 0.47939m38.167 39.022c-2.6846 1.7258-5.0816 2.9083-7.1909 3.5475-2.5568 0.76703-5.1455 1.1505-7.7662 1.1505-4.6661 0-8.3734-1.1825-11.122-3.5475-4.9857-4.2186-7.4466-10.099-7.3826-17.642 0.06392-6.2001 1.3423-11.314 3.8351-15.341 3.0042-4.73 7.3507-7.095 13.039-7.095 10.611 4e-5 16.012 6.9992 16.203 20.997h-25.695c-0.38352 5.4331 0.63918 9.8435 3.0681 13.231 2.4289 3.3238 5.6248 4.9218 9.5878 4.7939 3.3238-0.12784 7.2548-1.2784 11.793-3.4516l1.6299 3.3557m-7.3826-21.956c-3e-5 -3.3877-0.70313-6.264-2.1093-8.629-1.6619-2.6846-3.931-4.0269-6.8074-4.0269-5.7527 3e-5 -8.9487 4.1867-9.5878 12.56l18.505 0.09588m51.091 19.176c-6.2641 4.8578-12.976 7.3187-20.134 7.3826-5.3053 0-9.492-2.397-12.56-7.1909-2.6846-4.1547-4.0269-9.0445-4.0269-14.669 0-5.6248 1.4382-10.579 4.3145-14.861 3.2599-4.7939 7.6063-7.1589 13.039-7.095 4.1547 5e-5 8.3414 1.0228 12.56 3.0681v-24.641l6.7115-2.3011 0.09588 60.308m-6.8074-0.76703v-27.229c-4.0908-2.5567-7.7023-3.8351-10.834-3.8351-3.963 3e-5 -6.9672 2.0774-9.0126 6.2321-1.6619 3.3238-2.4928 7.1909-2.4928 11.601-1e-5 4.2187 0.79897 7.894 2.397 11.026 1.9815 4.0908 4.8898 6.1362 8.7249 6.1362 3.5794 1e-5 7.3187-1.3103 11.218-3.931" fill="#2e597d"/>
    <a href="https://python.org" target="_blank">
        <path transform="matrix(0.84025,0,0,0.84025,-2.6275,0)" d="m 656.73047,156.53516 1.96289,-36.71289 V 71.205078 c 0,-4.071645 -1.4497,-7.551082 -4.36133,-10.451172 -2.60994,-2.6216 -5.99763,-4.408273 -10.16211,-5.371094 -2.22731,-0.487212 -4.5941,-0.730468 -7.11133,-0.730468 h -68.33398 l -57.65039,1.158203 c -8.03928,0 -15.44031,2.472263 -22.21484,7.402344 l 0,-44.556641 -10.60352,3.339844 -24.41797,12.769531 -10.58984,3.771484 V 54.652344 H 334.08789 c -9.02469,0.09283 -16.69145,1.982917 -23.00195,5.660156 -2.71455,1.554418 -4.95328,3.387001 -6.69336,5.521484 v 18.720704 h -95.44531 v -28.53711 c 0,-15.22523 -12.95539,-26.693226 -28.34961,-29.234375 -9.74472,-1.606605 -19.8418,-2.32002 -29.53907,-2.275391 -9.69726,0.04463 -18.99636,0.847304 -27.14453,2.275391 -24.003802,4.199941 -28.349607,13.021343 -28.349607,29.234375 l -0.002,-0.002 V 84.556641 H 74.287109 c -16.485569,0 -30.91253,9.850091 -35.427734,28.519529 -5.208331,21.40078 -5.439334,34.71482 0,57.06055 4.032133,16.6335 13.629665,28.51953 30.115234,28.51953 H 95.5625 v 28.53711 c 0,15.22642 13.35722,24.15326 28.35156,28.52148 17.95537,5.22928 35.19756,6.17436 56.68164,0 14.2797,-4.09504 28.35042,-12.30781 28.35157,-28.51953 v -21.40039 -7.14062 h 96.08398 l -1.26563,62.57031 8.16016,2.9668 0.54688,-29.55274 c 5.1137,3.195 10.10714,4.71465 14.97851,4.5625 l 49.71875,-0.11523 44.26758,-0.11328 h 30.69531 l 47.59571,0.11523 29.55859,-1.0293 h 8.33008 l 47.91406,1.02735 45.85937,-0.11524 c 8.51971,-0.0437 16.56354,-3.00488 24.125,-8.78515 l 1.21485,-71.77539 z"
            style="fill:transparent" />
    </a>
</g>
</svg>
