<?xml version="1.0" encoding="UTF-8"?>
<svg width="355.98" height="354.53" version="1.1" viewBox="0 0 355.98267 354.53467" xml:space="preserve" xmlns="http://www.w3.org/2000/svg" xmlns:cc="http://creativecommons.org/ns#" xmlns:dc="http://purl.org/dc/elements/1.1/" xmlns:rdf="http://www.w3.org/1999/02/22-rdf-syntax-ns#"><metadata><rdf:RDF><cc:Work rdf:about=""><dc:format>image/svg+xml</dc:format><dc:type rdf:resource="http://purl.org/dc/dcmitype/StillImage"/></cc:Work></rdf:RDF></metadata><defs><linearGradient id="a" x2="1" gradientTransform="matrix(0 236 236 0 133.9 13.999)" gradientUnits="userSpaceOnUse"><stop stop-color="#1d93d2" offset="0"/><stop stop-color="#38b0e3" offset="1"/></linearGradient><clipPath id="d"><path d="m0 265.9h266.99v-265.9h-266.99z"/></clipPath><clipPath id="c"><path d="m0 265.9h266.99v-265.9h-266.99z"/></clipPath><clipPath id="b"><path d="m0 265.9h266.99v-265.9h-266.99z"/></clipPath></defs><g transform="matrix(1.3333 0 0 -1.3333 0 354.53)"><path d="m15.903 132c0-65.169 52.83-118 118-118s118 52.83 118 118c0 65.17-52.83 118-118 118s-118-52.831-118-118" fill="url(#a)"/><g clip-path="url(#d)"><g transform="translate(95.778 123.37)"><path d="m0 0 14-38.75s1.75-3.625 3.625-3.625 29.75 29 29.75 29l31 59.875-77.875-36.5z" fill="#c8daea"/></g></g><g clip-path="url(#c)"><g transform="translate(114.34 113.44)"><path d="m0 0-2.688-28.562s-1.125-8.751 7.625 0c8.75 8.75 17.125 15.499 17.125 15.499" fill="#a9c6d8"/></g></g><g clip-path="url(#b)"><g transform="translate(96.031 121.99)"><path d="m0 0-28.795 9.383s-3.437 1.395-2.333 4.562c0.228 0.653 0.687 1.208 2.062 2.167 6.382 4.447 118.1 44.604 118.1 44.604s3.155 1.062 5.019 0.356c0.852-0.323 1.396-0.688 1.854-2.021 0.167-0.485 0.263-1.516 0.25-2.542-9e-3 -0.739-0.1-1.425-0.166-2.5-0.681-10.979-21.04-92.918-21.04-92.918s-1.218-4.795-5.583-4.958c-1.592-0.06-3.524 0.263-5.834 2.25-8.565 7.368-38.172 27.265-44.713 31.641-0.369 0.246-0.474 0.567-0.537 0.879-0.092 0.461 0.41 1.034 0.41 1.034s51.552 45.825 52.924 50.633c0.106 0.373-0.293 0.557-0.834 0.396-3.424-1.26-62.78-38.741-69.331-42.88-0.383-0.242-1.457-0.086-1.457-0.086" fill="#fff"/></g></g></g></svg>