<?xml version="1.0" standalone="no"?>
<!DOCTYPE svg PUBLIC "-//W3C//DTD SVG 20010904//EN"
 "http://www.w3.org/TR/2001/REC-SVG-20010904/DTD/svg10.dtd">
<svg version="1.0" xmlns="http://www.w3.org/2000/svg"
 width="700.000000pt" height="700.000000pt" viewBox="0 0 700.000000 700.000000"
 preserveAspectRatio="xMidYMid meet">
<metadata>
Created by potrace 1.11, written by Peter Selinger 2001-2013
</metadata>
<g transform="translate(0.000000,700.000000) scale(0.100000,-0.100000)"
fill="#000000" stroke="none">
<path 
       d="M 10 0 C 4.4600004 0 0 4.4600004 0 10 L 0 54 C 1.1842379e-015 59.54 4.4600004 64 10 64 L 54 64 C 59.54 64 64 59.54 64 54 L 64 10 C 64 4.4600004 59.54 0 54 0 L 10 0 z M 12.527344 9.5253906 C 14.652374 9.5253906 16.632369 9.9162633 18.466797 10.697266 L 17.568359 12.740234 C 15.770257 11.9774 14.038836 11.597656 12.376953 11.597656 C 9.9522397 11.597656 8.0594643 12.317788 6.6972656 13.761719 C 5.3350667 15.205649 4.6542969 17.208599 4.6542969 19.769531 C 4.6542969 22.457607 5.3075234 24.497264 6.6152344 25.886719 C 7.9320263 27.276149 9.8615255 27.970703 12.404297 27.970703 C 13.784658 27.970703 15.13438 27.811974 16.451172 27.494141 L 16.451172 21.363281 L 11.996094 21.363281 L 11.996094 19.292969 L 18.765625 19.292969 L 18.765625 28.978516 C 17.712191 29.314516 16.64054 29.567686 15.550781 29.740234 C 14.461022 29.912833 13.198521 30 11.763672 30 C 8.7486717 30 6.4027014 29.105433 4.7226562 27.316406 C 3.0426113 25.518309 2.2011719 23.002489 2.2011719 19.769531 C 2.2011719 17.699005 2.6150059 15.886891 3.4414062 14.333984 C 4.2768882 12.771981 5.4751216 11.582935 7.0371094 10.765625 C 8.5990974 9.9392187 10.429558 9.5253906 12.527344 9.5253906 z M 36.720703 9.8125 L 39.171875 9.8125 L 42.318359 22.113281 C 42.754262 23.838736 43.071696 25.400302 43.271484 26.798828 C 43.516675 25.136945 43.88001 23.511116 44.361328 21.921875 L 47.931641 9.8125 L 50.382812 9.8125 L 54.128906 22.03125 C 54.564809 23.438872 54.932738 25.027968 55.232422 26.798828 C 55.40497 25.509279 55.731583 23.938535 56.212891 22.085938 L 59.345703 9.8125 L 61.798828 9.8125 L 56.472656 29.728516 L 54.183594 29.728516 L 50.164062 16.392578 C 49.973349 15.802292 49.761498 15.057252 49.525391 14.158203 C 49.289271 13.259154 49.165321 12.718728 49.15625 12.537109 C 48.956464 13.73585 48.639033 15.046892 48.203125 16.472656 L 44.306641 29.728516 L 42.019531 29.728516 L 36.720703 9.8125 z M 28.832031 14.552734 C 30.611971 14.552734 31.929559 14.948209 32.783203 15.738281 C 33.645929 16.528379 34.078125 17.795467 34.078125 19.539062 L 34.078125 29.728516 L 32.402344 29.728516 L 31.953125 27.601562 L 31.84375 27.601562 C 31.099081 28.536945 30.354043 29.173766 29.609375 29.509766 C 28.873788 29.836695 27.951672 30 26.84375 30 C 25.363494 30 24.201985 29.618303 23.357422 28.855469 C 22.52194 28.092634 22.103516 27.007206 22.103516 25.599609 C 22.103516 22.584605 24.513754 21.00466 29.335938 20.859375 L 31.871094 20.777344 L 31.871094 19.851562 C 31.871094 18.680061 31.615976 17.817625 31.107422 17.263672 C 30.607949 16.700623 29.805187 16.419922 28.697266 16.419922 C 27.453124 16.419922 26.045679 16.799665 24.474609 17.5625 L 23.779297 15.833984 C 24.514884 15.434413 25.317646 15.119602 26.189453 14.892578 C 27.070342 14.665555 27.951143 14.552734 28.832031 14.552734 z M 31.816406 22.384766 L 29.554688 22.480469 C 27.756585 22.543965 26.45736 22.824666 25.658203 23.324219 C 24.868128 23.8146 24.474609 24.582594 24.474609 25.626953 C 24.474609 26.444263 24.718593 27.067306 25.208984 27.494141 C 25.708457 27.92095 26.402999 28.132813 27.292969 28.132812 C 28.700574 28.132812 29.804359 27.748468 30.603516 26.976562 C 31.411753 26.204658 31.816406 25.12383 31.816406 23.734375 L 31.816406 22.384766 z M 32.291016 35.818359 L 34.154297 35.818359 L 34.154297 53.275391 L 32.291016 53.275391 L 32.291016 35.818359 z M 2.8066406 36.873047 L 4.8261719 36.873047 L 8.5957031 47.486328 C 9.0295223 48.705503 9.3745982 49.891095 9.6289062 51.042969 C 9.8981734 49.831252 10.249774 48.62413 10.683594 47.419922 L 14.429688 36.873047 L 16.484375 36.873047 L 10.570312 53.275391 L 8.6855469 53.275391 L 2.8066406 36.873047 z M 18.75 36.873047 L 23.001953 36.873047 C 27.100798 36.873047 29.150391 38.466 29.150391 41.652344 C 29.150391 43.312816 28.582218 44.592672 27.445312 45.490234 C 26.315886 46.380313 24.695197 46.824219 22.585938 46.824219 L 20.65625 46.824219 L 20.65625 53.275391 L 18.75 53.275391 L 18.75 36.873047 z M 20.65625 38.521484 L 20.65625 45.185547 L 22.373047 45.185547 C 24.063446 45.185547 25.287525 44.913203 26.042969 44.367188 C 26.798413 43.821172 27.175781 42.946421 27.175781 41.742188 C 27.175781 40.657639 26.819941 39.849408 26.109375 39.318359 C 25.398809 38.787311 24.292471 38.521484 22.789062 38.521484 L 20.65625 38.521484 z M 56.728516 40.753906 C 58.209486 40.753906 59.322349 41.113997 60.070312 41.832031 C 60.818278 42.542608 61.193359 43.683185 61.193359 45.253906 L 61.193359 53.275391 L 59.330078 53.275391 L 59.330078 45.320312 C 59.330078 44.318032 59.102744 43.569829 58.646484 43.076172 C 58.190227 42.582515 57.47626 42.335938 56.503906 42.335938 C 55.217408 42.335938 54.274154 42.68525 53.675781 43.380859 C 53.077409 44.076469 52.779297 45.223564 52.779297 46.824219 L 52.779297 53.275391 L 50.916016 53.275391 L 50.916016 40.978516 L 52.429688 40.978516 L 52.734375 42.662109 L 52.824219 42.662109 C 53.205681 42.056251 53.739608 41.588862 54.427734 41.259766 C 55.115863 40.923186 55.883318 40.753906 56.728516 40.753906 z M 42.748047 40.777344 C 44.214058 40.777344 45.298868 41.103172 46.001953 41.753906 C 46.712519 42.40464 47.068359 43.446718 47.068359 44.882812 L 47.068359 53.275391 L 45.6875 53.275391 L 45.318359 51.525391 L 45.228516 51.525391 C 44.615184 52.29581 44.002004 52.818966 43.388672 53.095703 C 42.782821 53.364982 42.021892 53.5 41.109375 53.5 C 39.890193 53.5 38.933888 53.184949 38.238281 52.556641 C 37.550155 51.928357 37.205078 51.036285 37.205078 49.876953 C 37.205078 47.393703 39.192371 46.090388 43.164062 45.970703 L 45.25 45.904297 L 45.25 45.140625 C 45.25 44.175762 45.039954 43.46603 44.621094 43.009766 C 44.209712 42.546043 43.549235 42.314453 42.636719 42.314453 C 41.612008 42.314453 40.452182 42.627576 39.158203 43.255859 L 38.585938 41.832031 C 39.191791 41.502935 39.854221 41.243626 40.572266 41.056641 C 41.297791 40.86968 42.022521 40.777344 42.748047 40.777344 z M 45.205078 47.228516 L 43.34375 47.306641 C 41.862782 47.35905 40.792975 47.590615 40.134766 48.001953 C 39.484037 48.405859 39.158203 49.038293 39.158203 49.898438 C 39.158203 50.571622 39.359771 51.084026 39.763672 51.435547 C 40.175053 51.787093 40.747465 51.962891 41.480469 51.962891 C 42.639814 51.962891 43.548821 51.645533 44.207031 51.009766 C 44.872719 50.373999 45.205078 49.484234 45.205078 48.339844 L 45.205078 47.228516 z "
/>
<path d="M3337 4534 c-1 -1 -63 -4 -137 -8 -74 -3 -148 -8 -165 -11 -16 -3
-39 -6 -50 -8 -126 -22 -220 -80 -261 -165 -27 -53 -29 -174 -5 -228 36 -80
111 -123 221 -126 220 -5 379 98 424 277 13 48 23 207 17 260 -1 9 -36 16 -44
9z"/>
<path d="M2264 2721 c-2 -2 -4 -146 -4 -319 l0 -315 153 5 c198 7 280 31 363
104 40 35 66 103 71 184 13 190 -68 297 -251 331 -53 9 -324 18 -332 10z"/>
<path d="M4725 1809 c-235 -22 -322 -82 -333 -230 -6 -88 19 -144 81 -180 37
-21 54 -24 142 -23 88 0 107 4 155 27 130 64 180 156 180 329 l0 88 -77 -2
c-43 -2 -109 -6 -148 -9z"/>
</g>
</svg>
