<?xml version="1.0" standalone="no"?>
<!DOCTYPE svg PUBLIC "-//W3C//DTD SVG 20010904//EN"
 "http://www.w3.org/TR/2001/REC-SVG-20010904/DTD/svg10.dtd">
<svg version="1.0" xmlns="http://www.w3.org/2000/svg"
 width="700.000000pt" height="700.000000pt" viewBox="0 0 700.000000 700.000000"
 preserveAspectRatio="xMidYMid meet">
<metadata>
Created by potrace 1.11, written by Peter Selinger 2001-2013
</metadata>
<g transform="translate(0.000000,700.000000) scale(0.100000,-0.100000)"
fill="#000000" stroke="none">
<path d="M935 6989 c-33 -5 -100 -20 -149 -34 -394 -113 -697 -451 -770 -860
-21 -121 -22 -5073 -1 -5185 64 -328 243 -589 521 -757 89 -54 236 -112 326
-128 13 -3 46 -9 73 -14 32 -7 964 -9 2595 -8 l2545 2 81 22 c272 74 472 206
630 420 77 103 156 268 180 374 32 145 32 130 32 2674 1 1549 -3 2533 -9 2570
-57 362 -276 660 -604 824 -93 46 -226 87 -328 100 -92 12 -5040 12 -5122 0z
m575 -1043 c153 -27 219 -42 310 -73 58 -19 109 -39 114 -44 8 -7 -17 -76 -93
-251 l-20 -47 -68 28 c-37 15 -96 35 -131 45 -133 37 -170 41 -347 40 -154 0
-164 -1 -254 -32 -311 -107 -482 -380 -482 -767 0 -206 27 -346 93 -483 30
-64 57 -101 111 -156 80 -80 154 -123 267 -157 113 -33 348 -35 509 -4 14 3
39 8 56 11 16 3 31 7 34 10 10 9 6 546 -4 552 -5 4 -107 7 -225 7 l-215 0 -2
153 -1 152 398 0 c309 0 399 -3 402 -12 2 -7 3 -254 3 -548 l-1 -535 -99 -28
c-239 -66 -368 -82 -655 -82 -197 0 -256 7 -386 45 -305 91 -523 325 -609 656
-29 112 -32 127 -42 239 -38 426 60 758 290 988 80 81 162 140 258 187 71 34
202 78 258 86 20 3 43 7 51 10 8 3 44 8 80 11 36 3 66 7 68 8 6 5 297 -3 332
-9z m2850 -54 c12 -43 80 -319 86 -345 2 -11 22 -94 44 -185 23 -92 43 -174
45 -182 2 -8 35 -143 74 -300 67 -271 113 -478 127 -565 3 -22 8 -43 10 -46 1
-3 6 -34 10 -70 3 -35 8 -65 9 -67 2 -3 9 34 31 160 19 113 108 485 135 558 8
25 130 462 236 850 31 113 60 210 65 217 6 8 61 11 181 10 l172 -2 48 -170
c27 -93 69 -240 93 -325 24 -85 68 -243 99 -350 31 -107 58 -206 61 -219 3
-14 7 -28 10 -33 3 -4 7 -16 9 -25 2 -10 20 -76 40 -147 36 -130 88 -375 101
-474 8 -60 11 -62 19 -6 19 135 44 256 107 509 27 110 51 208 53 217 2 9 38
158 80 330 43 172 92 376 111 453 18 77 39 163 46 190 l13 50 178 2 c136 2
177 -1 177 -10 0 -7 -12 -58 -26 -112 -14 -55 -27 -107 -29 -115 -2 -8 -21
-82 -43 -165 -22 -82 -63 -238 -91 -345 -28 -107 -87 -334 -131 -505 -45 -170
-96 -368 -115 -440 -19 -71 -50 -193 -70 -270 -21 -77 -39 -148 -41 -158 -11
-61 2 -57 -209 -57 l-194 0 -20 68 c-23 77 -60 210 -66 232 -2 8 -66 236 -143
505 -161 561 -192 681 -228 869 -16 84 -17 83 -36 -14 -25 -131 -23 -123 -52
-240 -14 -58 -68 -258 -120 -445 -52 -187 -135 -483 -183 -657 l-88 -318 -195
0 -195 0 -53 208 c-29 114 -63 248 -76 297 -13 50 -50 189 -81 310 -31 121
-77 297 -101 390 -25 94 -47 177 -49 186 -5 24 -82 314 -100 379 -18 64 -105
401 -105 405 0 2 81 3 180 3 l180 1 10 -37z m-1100 -477 c255 -36 404 -163
455 -385 15 -66 17 -145 16 -665 0 -324 0 -596 0 -602 -1 -10 -33 -13 -125
-13 l-124 0 -26 83 c-14 46 -26 86 -26 89 0 4 -5 19 -10 34 l-11 27 -69 -70
c-111 -114 -171 -149 -305 -177 -100 -22 -311 -15 -386 11 -143 50 -237 140
-284 272 -44 125 -37 307 15 416 97 203 316 295 738 311 142 6 251 11 263 13
8 1 3 149 -6 191 -19 88 -87 165 -167 190 -53 16 -169 20 -251 7 -70 -10 -218
-58 -290 -93 l-49 -23 -44 97 c-24 53 -50 109 -58 125 -15 27 -14 27 24 47
103 53 290 104 425 117 33 3 61 7 63 8 5 5 184 -3 232 -10z m503 -2334 c4 -1
7 -430 7 -955 l0 -953 -144 0 -143 1 0 950 c-1 523 1 953 2 956 2 4 242 5 278
1z m-3091 -730 c114 -339 217 -652 228 -696 12 -44 23 -84 24 -90 2 -5 7 -30
11 -54 7 -36 10 -41 16 -24 4 11 10 37 13 59 17 102 87 322 391 1220 l68 202
153 0 153 0 -19 -52 c-10 -28 -34 -96 -54 -151 -94 -270 -326 -932 -386 -1105
-37 -107 -75 -212 -83 -233 -9 -20 -13 -37 -9 -37 3 0 1 -5 -6 -12 -7 -7 -12
-20 -12 -30 0 -10 -4 -26 -10 -36 -5 -9 -19 -44 -30 -78 l-22 -61 -153 0
c-131 0 -155 3 -160 16 -4 9 -31 88 -62 176 -30 88 -58 169 -63 180 -5 11 -33
92 -64 181 -31 88 -83 239 -116 335 -34 96 -68 194 -76 219 -8 25 -19 54 -23
65 -5 11 -37 101 -71 200 -34 99 -79 231 -101 293 -22 62 -37 116 -34 121 3 5
69 9 148 9 l143 -1 206 -616z m1983 606 c11 -2 40 -8 65 -12 70 -11 160 -45
215 -80 149 -95 218 -239 217 -450 -1 -262 -131 -441 -381 -525 -36 -12 -76
-23 -90 -25 -14 -2 -44 -7 -66 -11 -22 -3 -110 -7 -195 -8 l-155 -2 -5 -334
-5 -335 -142 -1 -143 -2 -1 32 c-3 89 -4 1752 -1 1758 3 8 655 3 687 -5z
m2198 -411 c157 -22 286 -104 338 -215 44 -93 47 -139 48 -662 l1 -496 -104 0
-103 0 -28 93 c-15 52 -29 94 -31 94 -2 0 -33 -28 -68 -63 -111 -109 -207
-145 -387 -145 -110 0 -175 14 -252 56 -62 33 -102 79 -141 162 -29 61 -31 72
-31 185 0 112 2 124 29 179 40 81 99 137 187 179 121 57 222 75 468 83 91 4
168 10 171 15 4 5 5 40 3 79 -8 166 -89 242 -256 241 -92 -1 -195 -24 -304
-69 l-72 -29 -22 46 c-49 104 -69 153 -65 160 16 25 255 96 360 107 33 4 62 7
63 8 5 4 157 -3 196 -8z m1647 -7 c126 -25 239 -109 284 -212 47 -104 50 -143
51 -652 1 -264 0 -485 -2 -491 -3 -8 -47 -11 -145 -10 l-141 1 -2 465 c-2 400
-4 472 -19 516 -20 65 -46 97 -102 130 -37 22 -60 27 -125 29 -44 2 -99 -2
-122 -7 -57 -12 -138 -63 -165 -103 -30 -43 -60 -122 -67 -177 -3 -23 -8 -52
-10 -63 -2 -11 -4 -194 -4 -406 l-1 -386 -144 0 -144 0 0 679 0 678 113 0 113
0 17 -77 c24 -111 26 -113 65 -64 109 136 325 194 550 150z"/>
<path d="M3337 4534 c-1 -1 -63 -4 -137 -8 -74 -3 -148 -8 -165 -11 -16 -3
-39 -6 -50 -8 -126 -22 -220 -80 -261 -165 -27 -53 -29 -174 -5 -228 36 -80
111 -123 221 -126 220 -5 379 98 424 277 13 48 23 207 17 260 -1 9 -36 16 -44
9z"/>
<path d="M2264 2721 c-2 -2 -4 -146 -4 -319 l0 -315 153 5 c198 7 280 31 363
104 40 35 66 103 71 184 13 190 -68 297 -251 331 -53 9 -324 18 -332 10z"/>
<path d="M4725 1809 c-235 -22 -322 -82 -333 -230 -6 -88 19 -144 81 -180 37
-21 54 -24 142 -23 88 0 107 4 155 27 130 64 180 156 180 329 l0 88 -77 -2
c-43 -2 -109 -6 -148 -9z"/>
</g>
</svg>
