<?xml version="1.0" encoding="UTF-8" standalone="no"?>
<!-- Created with Inkscape (http://www.inkscape.org/) -->

<svg
        xmlns:dc="http://purl.org/dc/elements/1.1/"
        xmlns:cc="http://creativecommons.org/ns#"
        xmlns:rdf="http://www.w3.org/1999/02/22-rdf-syntax-ns#"
        xmlns="http://www.w3.org/2000/svg"
        xmlns:sodipodi="http://sodipodi.sourceforge.net/DTD/sodipodi-0.dtd"
        xmlns:inkscape="http://www.inkscape.org/namespaces/inkscape"
        width="64"
        height="64"
        viewBox="0 0 16.933333 16.933334"
        version="1.1"
        id="svg8"
        inkscape:version="0.92.4 (5da689c313, 2019-01-14)"
        sodipodi:docname="favicon.svg"
        inkscape:export-filename="C:\Users\Florian\Dropbox\PycharmProjects\GaWVPlan\favicon-16.png"
        inkscape:export-xdpi="24.000002"
        inkscape:export-ydpi="24.000002">
  <defs
     id="defs2" />
  <sodipodi:namedview
     id="base"
     pagecolor="#ffffff"
     bordercolor="#666666"
     borderopacity="1.0"
     inkscape:pageopacity="0.0"
     inkscape:pageshadow="2"
     inkscape:zoom="7.919596"
     inkscape:cx="52.273894"
     inkscape:cy="26.353287"
     inkscape:document-units="mm"
     inkscape:current-layer="text827"
     showgrid="false"
     units="px"
     inkscape:window-width="1920"
     inkscape:window-height="1137"
     inkscape:window-x="1042"
     inkscape:window-y="110"
     inkscape:window-maximized="1" />
  <metadata
     id="metadata5">
    <rdf:RDF>
      <cc:Work
         rdf:about="">
        <dc:format>image/svg+xml</dc:format>
        <dc:type
           rdf:resource="http://purl.org/dc/dcmitype/StillImage" />
        <dc:title />
      </cc:Work>
    </rdf:RDF>
  </metadata>
  <g
     inkscape:label="Ebene 1"
     inkscape:groupmode="layer"
     id="layer1"
     transform="translate(0,-280.06665)">
    <rect
       style="opacity:1;fill:#e67b10;fill-opacity:1;fill-rule:nonzero;stroke:none;stroke-width:1.27999997;stroke-linecap:round;stroke-linejoin:round;stroke-miterlimit:10;stroke-dasharray:none;stroke-dashoffset:0;stroke-opacity:1;paint-order:markers fill stroke"
       id="rect815"
       width="16.933332"
       height="16.933332"
       x="0"
       y="280.06665"
       rx="2.6458333"
       ry="2.6458333"
       inkscape:export-xdpi="1536"
       inkscape:export-ydpi="1536" />
    <g
       aria-label="GaW"
       style="font-style:normal;font-weight:normal;font-size:3.24555564px;line-height:1.25;font-family:sans-serif;text-align:center;letter-spacing:0px;word-spacing:0px;text-anchor:middle;fill:#000000;fill-opacity:1;stroke:none;stroke-width:0.26458332"
       id="text821">
      <path
         d="m 3.1739712,285.17129 h 1.7912629 v 2.56255 q -0.4180815,0.13335 -0.8505796,0.20183 -0.4324981,0.0685 -1.0019539,0.0685 -1.1965781,0 -1.863346,-0.71002 -0.6667679,-0.71362 -0.6667679,-1.9967 0,-0.82174 0.32797772,-1.43805 0.33158188,-0.61992 0.95149578,-0.94429 0.619914,-0.32798 1.4524728,-0.32798 0.8433713,0 1.5714098,0.30996 l -0.237874,0.54062 q -0.7136218,-0.30275 -1.3731814,-0.30275 -0.9623083,0 -1.5029309,0.57306 -0.5406227,0.57306 -0.5406227,1.58943 0,1.06683 0.5189978,1.61827 0.5226018,0.55143 1.5317641,0.55143 0.5478309,0 1.0704328,-0.12614 v -1.62187 H 3.1739712 Z"
         style="font-style:normal;font-variant:normal;font-weight:normal;font-stretch:normal;font-size:7.38130093px;font-family:'Open Sans';-inkscape-font-specification:'Open Sans';text-align:center;text-anchor:middle;stroke-width:0.26458332"
         id="path4520" />
      <path
         d="m 8.5729893,287.93207 -0.118937,-0.56225 h -0.028833 q -0.2955404,0.37123 -0.5910807,0.50458 -0.2919362,0.12975 -0.7316426,0.12975 -0.5874766,0 -0.9226627,-0.30275 -0.3315818,-0.30275 -0.3315818,-0.86139 0,-1.19658 1.9138041,-1.25424 l 0.670372,-0.0216 v -0.24508 q 0,-0.46494 -0.2018324,-0.68479 -0.1982283,-0.22346 -0.6379347,-0.22346 -0.4937687,0 -1.1172868,0.30275 l -0.1838117,-0.45773 q 0.2919362,-0.15858 0.6379347,-0.24868 0.3496027,-0.0901 0.6992053,-0.0901 0.7064135,0 1.0452037,0.31356 0.3423944,0.31357 0.3423944,1.00556 v 2.69591 z m -1.3515566,-0.42169 q 0.5586434,0 0.8758087,-0.30635 0.3207694,-0.30635 0.3207694,-0.85779 v -0.35681 l -0.598289,0.0252 q -0.7136219,0.0252 -1.0307872,0.22346 -0.3135611,0.19462 -0.3135611,0.6091 0,0.32437 0.1946242,0.49377 0.1982283,0.16939 0.551435,0.16939 z"
         style="font-style:normal;font-variant:normal;font-weight:normal;font-stretch:normal;font-size:7.38130093px;font-family:'Open Sans';-inkscape-font-specification:'Open Sans';text-align:center;text-anchor:middle;stroke-width:0.26458332"
         id="path4522" />
      <path
         d="m 14.941524,287.93207 h -0.605498 l -1.063224,-3.52847 q -0.07569,-0.23427 -0.169395,-0.59108 -0.09371,-0.35681 -0.09731,-0.42889 -0.07929,0.47575 -0.252291,1.0416 l -1.030787,3.50684 H 11.11752 L 9.7155049,282.6628 h 0.6487471 l 0.832559,3.25455 q 0.172999,0.68479 0.25229,1.23983 0.09731,-0.65956 0.288333,-1.29029 l 0.944287,-3.20409 h 0.648747 l 0.991142,3.23292 q 0.172999,0.55865 0.291936,1.26146 0.06848,-0.51179 0.259499,-1.24704 l 0.828954,-3.24734 h 0.648748 z"
         style="font-style:normal;font-variant:normal;font-weight:normal;font-stretch:normal;font-size:7.38130093px;font-family:'Open Sans';-inkscape-font-specification:'Open Sans';text-align:center;text-anchor:middle;stroke-width:0.26458332"
         id="path4524" />
    </g>
    <g
       aria-label="VPlan"
       style="font-style:normal;font-weight:normal;font-size:6.07945442px;line-height:1.25;font-family:sans-serif;text-align:center;letter-spacing:0px;word-spacing:0px;text-anchor:middle;fill:#000000;fill-opacity:1;stroke:none;stroke-width:0.26458332"
       id="text827">
      <path
         d="m 3.8180211,289.82255 h 0.5432325 l -1.5643909,4.33993 H 2.2981575 L 0.74267206,289.82255 H 1.2769991 l 0.9974105,2.80819 q 0.172172,0.48386 0.2731005,0.94101 0.1068654,-0.4809 0.2790375,-0.95882 z"
         style="font-style:normal;font-variant:normal;font-weight:normal;font-stretch:normal;font-size:6.07945442px;line-height:8.81944466px;font-family:'Open Sans';-inkscape-font-specification:'Open Sans';text-align:center;text-anchor:middle;stroke-width:0.26458332"
         id="path14" />
      <path
         d="m 7.7126716,291.08713 q 0,0.659 -0.4512095,1.01522 -0.448241,0.35325 -1.2853534,0.35325 H 5.4655296 v 1.70688 H 4.9608873 v -4.33993 h 1.1250553 q 1.626729,0 1.626729,1.26458 z m -2.247142,0.93507 h 0.454178 q 0.6708772,0 0.9706941,-0.2167 0.2998168,-0.2167 0.2998168,-0.69463 0,-0.43043 -0.2820059,-0.64119 -0.282006,-0.21076 -0.8786712,-0.21076 H 5.4655296 Z"
         style="font-style:normal;font-variant:normal;font-weight:normal;font-stretch:normal;font-size:6.07945442px;line-height:8.81944466px;font-family:'Open Sans';-inkscape-font-specification:'Open Sans';text-align:center;text-anchor:middle;stroke-width:0.26458332"
         id="path16" />
      <path
         d="M 9.0366153,294.16248 H 8.543847 v -4.61896 h 0.4927683 z"
         style="font-style:normal;font-variant:normal;font-weight:normal;font-stretch:normal;font-size:6.07945442px;line-height:8.81944466px;font-family:'Open Sans';-inkscape-font-specification:'Open Sans';text-align:center;text-anchor:middle;stroke-width:0.26458332"
         id="path18" />
      <path
         d="m 12.088216,294.16248 -0.09796,-0.46309 h -0.02375 q -0.243416,0.30576 -0.486832,0.41559 -0.240447,0.10687 -0.602602,0.10687 -0.483863,0 -0.759932,-0.24936 -0.2731001,-0.24935 -0.2731001,-0.70946 0,-0.98554 1.5762651,-1.03304 l 0.552138,-0.0178 v -0.20186 q 0,-0.38293 -0.166235,-0.56401 -0.163267,-0.18404 -0.525422,-0.18404 -0.406682,0 -0.92023,0.24935 l -0.151393,-0.377 q 0.240448,-0.13061 0.525422,-0.20482 0.287943,-0.0742 0.575886,-0.0742 0.581823,0 0.86086,0.25826 0.282006,0.25826 0.282006,0.82821 v 2.22043 z m -1.113181,-0.34732 q 0.460115,0 0.721342,-0.25232 0.264195,-0.25232 0.264195,-0.7065 v -0.29388 l -0.492769,0.0208 q -0.587759,0.0208 -0.848986,0.18405 -0.258258,0.1603 -0.258258,0.50167 0,0.26717 0.160298,0.40668 0.163267,0.13952 0.454178,0.13952 z"
         style="font-style:normal;font-variant:normal;font-weight:normal;font-stretch:normal;font-size:6.07945442px;line-height:8.81944466px;font-family:'Open Sans';-inkscape-font-specification:'Open Sans';text-align:center;text-anchor:middle;stroke-width:0.26458332"
         id="path20" />
      <path
         d="m 15.697893,294.16248 v -2.10466 q 0,-0.39778 -0.181078,-0.5937 -0.181077,-0.19592 -0.56698,-0.19592 -0.510579,0 -0.748058,0.27607 -0.237479,0.27607 -0.237479,0.91133 v 1.70688 H 13.47153 v -3.25346 h 0.400745 l 0.08015,0.44527 h 0.02375 q 0.151393,-0.24045 0.424493,-0.37106 0.273101,-0.13358 0.608539,-0.13358 0.58776,0 0.884608,0.28497 0.296849,0.28201 0.296849,0.90539 v 2.12247 z"
         style="font-style:normal;font-variant:normal;font-weight:normal;font-stretch:normal;font-size:6.07945442px;line-height:8.81944466px;font-family:'Open Sans';-inkscape-font-specification:'Open Sans';text-align:center;text-anchor:middle;stroke-width:0.26458332"
         id="path22" />
    </g>
  </g>
</svg>
