<svg width="64" height="64" version="1.1" viewBox="0 0 16.933 16.933" xmlns="http://www.w3.org/2000/svg"><g transform="translate(0 -280.07)"><rect y="280.07" width="16.933" height="16.933" rx="2.6458" ry="2.6458" fill="#e67b10" style="paint-order:markers fill stroke"/><g stroke-width=".26638" aria-label="GaW"><path d="m3.1381 285.31h1.8034v2.5799q-0.42091 0.13425-0.85634 0.2032-0.43543 0.0689-1.0087 0.0689-1.2047 0-1.876-0.71483-0.67129-0.71846-0.67129-2.0102 0-0.82731 0.3302-1.4478 0.33383-0.62412 0.95794-0.95069 0.62411-0.3302 1.4623-0.3302 0.84909 0 1.5821 0.31206l-0.23949 0.54428q-0.71846-0.3048-1.3825-0.3048-0.96883 0-1.5131 0.57695-0.54429 0.57694-0.54429 1.6002 0 1.0741 0.52251 1.6292 0.52614 0.55517 1.5421 0.55517 0.55154 0 1.0777-0.127v-1.6328h-1.1865z"/><path d="m8.5737 288.09-0.11974-0.56606h-0.029029q-0.29754 0.37374-0.59509 0.508-0.29391 0.13063-0.7366 0.13063-0.59146 0-0.92891-0.3048-0.33383-0.3048-0.33383-0.86723 0-1.2047 1.9268-1.2627l0.67491-0.0218v-0.24674q0-0.46809-0.2032-0.68943-0.19957-0.22497-0.64226-0.22497-0.49711 0-1.1249 0.3048l-0.18506-0.46083q0.29391-0.15966 0.64226-0.25037 0.35197-0.0907 0.70394-0.0907 0.7112 0 1.0523 0.31569 0.34471 0.31568 0.34471 1.0124v2.7142zm-1.3607-0.42454q0.56243 0 0.88174-0.30843 0.32294-0.30843 0.32294-0.8636v-0.35923l-0.60234 0.0254q-0.71846 0.0254-1.0378 0.22497-0.31569 0.19594-0.31569 0.61323 0 0.32657 0.19594 0.49711 0.19957 0.17055 0.55517 0.17055z"/><path d="m14.985 288.09h-0.6096l-1.0704-3.5524q-0.0762-0.23586-0.17054-0.59509-0.09434-0.35922-0.09797-0.4318-0.07983 0.47898-0.254 1.0487l-1.0378 3.5306h-0.6096l-1.4115-5.305h0.65314l0.8382 3.2766q0.17417 0.68943 0.254 1.2482 0.09797-0.66403 0.29029-1.299l0.95068-3.2258h0.65314l0.99786 3.2548q0.17417 0.56242 0.29391 1.27 0.06894-0.51526 0.26126-1.2555l0.83457-3.2693h0.65314z"/></g><g stroke-width=".2719" aria-label="VPlan"><path d="m3.6895 289.88h0.55825l-1.6076 4.4599h-0.51249l-1.5985-4.4599h0.5491l1.025 2.8858q0.17693 0.49724 0.28065 0.96702 0.10982-0.49419 0.28675-0.98532z"/><path d="m7.6918 291.18q0 0.67722-0.46368 1.0433-0.46063 0.36302-1.3209 0.36302h-0.52469v1.7541h-0.51859v-4.4599h1.1562q1.6717 0 1.6717 1.2995zm-2.3093 0.96092h0.46673q0.68942 0 0.99753-0.22269 0.3081-0.22269 0.3081-0.71382 0-0.44233-0.2898-0.65892-0.2898-0.21659-0.90296-0.21659h-0.5796z"/><path d="m9.0524 294.34h-0.50639v-4.7466h0.50639z"/><path d="m12.188 294.34-0.10067-0.47589h-0.0244q-0.25014 0.31421-0.50029 0.42708-0.24709 0.10982-0.61926 0.10982-0.49724 0-0.78094-0.25625-0.28065-0.25624-0.28065-0.72908 0-1.0128 1.6198-1.0616l0.5674-0.0183v-0.20743q0-0.39352-0.17083-0.5796-0.16778-0.18914-0.53994-0.18914-0.41792 0-0.94567 0.25625l-0.15558-0.38742q0.24709-0.13422 0.53994-0.21049 0.2959-0.0763 0.5918-0.0763 0.5979 0 0.88466 0.2654 0.2898 0.26539 0.2898 0.8511v2.2818zm-1.144-0.35692q0.47283 0 0.74128-0.25929 0.2715-0.2593 0.2715-0.72603v-0.302l-0.50639 0.0213q-0.60401 0.0214-0.87245 0.18913-0.2654 0.16473-0.2654 0.51555 0 0.27454 0.16473 0.41792 0.16778 0.14337 0.46673 0.14337z"/><path d="m15.898 294.34v-2.1628q0-0.40878-0.18608-0.61011-0.18608-0.20134-0.58265-0.20134-0.52469 0-0.76874 0.2837t-0.24404 0.93652v1.7541h-0.50639v-3.3434h0.41182l0.08236 0.45758h0.0244q0.15558-0.24709 0.43623-0.38132 0.28065-0.13727 0.62536-0.13727 0.60401 0 0.90906 0.29285 0.30505 0.2898 0.30505 0.93041v2.1811z"/></g></g></svg>
