<?xml version="1.0" standalone="no"?>
<!DOCTYPE svg PUBLIC "-//W3C//DTD SVG 20010904//EN"
 "http://www.w3.org/TR/2001/REC-SVG-20010904/DTD/svg10.dtd">
<svg version="1.0" xmlns="http://www.w3.org/2000/svg"
 width="700.000000pt" height="700.000000pt" viewBox="0 0 700.000000 700.000000"
 preserveAspectRatio="xMidYMid meet">
<metadata>
Created by potrace 1.11, written by Peter Selinger 2001-2013
</metadata>
<g transform="translate(0.000000,700.000000) scale(0.100000,-0.100000)"
fill="#000000" stroke="none">
<path d="M1175 5894 c-375 -44 -651 -215 -812 -504 -60 -108 -114 -273 -130
-399 -10 -71 -10 -370 -1 -436 60 -450 313 -762 700 -861 133 -34 220 -43 413
-39 105 2 201 6 215 9 14 2 48 7 75 10 59 7 92 13 160 27 28 6 61 13 75 15 46
8 165 46 170 54 3 4 5 244 4 532 l-1 523 -373 0 -373 0 1 -90 c0 -49 1 -99 1
-111 1 -20 5 -20 234 -19 127 0 237 -1 244 -3 8 -3 11 -91 11 -338 l0 -334
-36 -9 c-21 -5 -53 -12 -72 -15 -19 -3 -46 -8 -60 -11 -36 -8 -194 -19 -270
-19 -387 0 -643 141 -774 427 -28 63 -60 177 -75 272 -12 73 -12 340 -1 392 5
21 11 55 14 75 3 21 15 66 27 100 88 257 267 432 509 497 111 30 124 32 255
35 174 5 337 -23 510 -85 44 -16 84 -30 88 -32 5 -1 30 48 57 108 40 90 46
111 34 118 -39 22 -227 79 -304 92 -19 3 -42 8 -50 10 -73 19 -335 25 -465 9z"/>
<path d="M4026 5850 c4 -14 14 -54 24 -90 10 -36 28 -103 40 -150 12 -47 30
-114 40 -150 33 -122 61 -226 235 -885 229 -863 225 -847 235 -872 8 -20 15
-21 132 -22 l123 0 38 127 c21 70 39 134 41 142 2 8 12 42 22 75 10 33 19 65
20 70 2 6 28 96 59 200 31 105 78 264 105 355 26 91 60 206 75 255 97 332 117
401 140 498 14 60 25 118 25 130 0 48 23 -23 75 -233 2 -8 21 -73 43 -145 22
-71 45 -146 50 -165 6 -19 27 -89 47 -155 20 -66 42 -140 50 -165 23 -80 235
-784 244 -810 5 -14 19 -59 31 -101 l23 -77 123 0 c68 0 126 3 128 7 3 4 84
304 181 667 97 362 185 693 196 734 97 360 141 527 144 540 2 8 17 64 34 124
17 61 28 112 25 115 -6 7 -264 9 -264 2 0 -3 -74 -291 -126 -491 -30 -116 -56
-220 -60 -240 -3 -14 -9 -38 -14 -55 -5 -16 -50 -190 -99 -385 -78 -307 -116
-477 -147 -645 l-7 -40 -13 70 c-8 39 -16 82 -19 97 -3 15 -14 65 -26 110 -11
46 -22 92 -24 103 -6 25 -59 206 -90 305 -13 41 -58 188 -100 325 -42 138 -80
261 -86 275 -5 14 -11 34 -13 45 -3 11 -25 88 -51 170 -25 83 -60 195 -77 250
-17 55 -34 102 -39 105 -4 3 -65 5 -136 5 l-127 0 -19 -60 c-10 -33 -34 -112
-52 -175 -19 -63 -48 -162 -65 -220 -17 -58 -37 -125 -44 -150 -15 -52 -81
-278 -156 -530 -57 -193 -101 -350 -119 -423 -19 -78 -51 -247 -51 -268 0 -10
-4 -19 -8 -19 -5 0 -9 6 -9 13 0 24 -12 96 -33 198 -12 57 -23 111 -25 119 -2
8 -8 33 -13 55 -6 22 -13 51 -16 65 -2 14 -25 106 -51 205 -26 99 -49 187 -51
195 -2 8 -15 60 -30 115 -14 55 -27 107 -29 115 -2 8 -40 159 -85 335 -46 176
-87 340 -92 365 -6 25 -14 49 -19 55 -5 5 -68 10 -139 10 l-129 1 5 -26z"/>
<path d="M3138 5356 c-1 -2 -41 -6 -88 -9 -82 -6 -252 -44 -315 -71 -102 -44
-135 -60 -135 -68 0 -4 16 -48 36 -97 l35 -89 62 27 c182 81 376 114 517 87
102 -20 178 -90 210 -194 24 -77 36 -271 17 -273 -7 0 -55 -2 -107 -4 -287
-10 -465 -28 -531 -54 -13 -5 -28 -9 -34 -10 -67 -8 -204 -83 -269 -148 -89
-87 -129 -195 -125 -338 8 -305 214 -473 564 -460 196 7 299 49 430 177 44 43
82 78 86 78 6 0 13 -29 25 -100 3 -14 10 -47 17 -75 l13 -50 92 -2 92 -3 0
603 c-1 661 -4 706 -60 822 -70 144 -211 226 -415 240 -49 4 -95 8 -102 10 -6
2 -13 2 -15 1z m341 -977 c-2 -189 -40 -301 -135 -393 -48 -47 -146 -99 -209
-111 -22 -5 -47 -10 -55 -12 -53 -11 -182 -3 -235 16 -52 18 -70 29 -111 67
-53 48 -76 184 -48 284 22 77 81 144 160 180 76 34 216 61 349 67 66 3 121 6
122 7 1 0 38 2 82 4 l81 2 -1 -111z"/>
<path d="M3553 3062 l-22 -3 0 -980 0 -979 105 0 c57 0 104 3 105 8 4 44 0
1944 -4 1948 -6 6 -149 11 -184 6z"/>
<path d="M220 2944 c0 -3 99 -281 165 -464 36 -102 80 -223 96 -270 17 -47 39
-107 49 -135 10 -27 51 -140 90 -250 39 -110 82 -230 96 -267 13 -38 35 -100
49 -138 39 -109 71 -200 93 -260 l20 -55 107 0 108 0 34 95 c19 52 54 149 78
215 23 66 73 203 110 305 36 102 89 248 117 325 27 77 58 163 69 190 52 140
238 663 244 685 l6 25 -113 0 -112 0 -22 -60 c-12 -33 -41 -114 -64 -180 -23
-66 -62 -174 -85 -240 -24 -66 -59 -165 -78 -220 -20 -55 -70 -197 -112 -315
-102 -286 -154 -451 -169 -534 -8 -43 -14 -42 -21 0 -4 22 -11 50 -16 64 -5
14 -12 37 -14 51 -8 42 -196 592 -265 774 -10 28 -34 95 -54 150 -75 217 -178
500 -182 505 -5 4 -224 8 -224 4z"/>
<path d="M2022 2942 c-9 -3 -12 -234 -12 -923 l0 -919 108 0 107 0 0 356 c0
195 2 359 5 363 3 4 70 7 150 7 339 1 507 51 652 195 97 96 143 211 147 372 5
197 -78 366 -222 450 -58 34 -174 73 -262 87 -64 11 -646 21 -673 12z m623
-197 c199 -40 299 -143 310 -315 4 -80 -13 -178 -41 -232 -9 -17 -33 -47 -54
-68 -86 -84 -220 -117 -469 -116 l-165 1 -1 365 c-1 201 0 368 2 373 5 8 372
2 418 -8z"/>
<path d="M4658 2504 c-2 -1 -33 -5 -70 -8 -84 -9 -190 -38 -276 -76 -36 -17
-67 -32 -69 -33 -3 -3 55 -148 62 -155 2 -2 18 3 37 11 141 62 253 89 362 86
130 -3 206 -42 246 -124 28 -57 31 -74 37 -182 l5 -93 -43 -1 c-174 -4 -343
-15 -389 -24 -14 -3 -41 -8 -60 -11 -123 -21 -253 -83 -318 -153 -136 -145
-127 -419 18 -555 84 -79 205 -116 363 -110 159 6 262 51 368 161 32 33 61 57
64 53 3 -5 14 -49 24 -97 l18 -88 73 -3 c40 -2 76 1 79 7 3 5 6 238 5 518 -1
539 -3 567 -50 669 -60 129 -197 200 -398 208 -47 2 -87 2 -88 0z m327 -814
c0 -285 -147 -440 -419 -440 -166 0 -259 80 -259 224 -1 118 45 190 148 237
75 33 145 48 260 56 50 3 91 6 92 7 1 0 41 1 90 1 l88 0 0 -85z"/>
<path d="M6195 2504 c-124 -19 -236 -75 -309 -155 l-54 -58 -13 67 c-7 37 -14
70 -15 75 -1 4 -2 17 -3 30 -1 21 -5 22 -80 21 -43 -1 -83 -4 -87 -7 -5 -3 -9
-313 -9 -689 l1 -683 104 -3 105 -3 0 393 c0 445 5 513 45 621 40 106 122 174
244 202 166 39 325 1 389 -92 55 -81 57 -104 57 -635 l0 -488 105 0 105 0 1
288 c0 478 -1 694 -6 716 -2 12 -7 37 -9 56 -23 163 -130 279 -301 327 -52 14
-219 25 -270 17z"/>
</g>
</svg>
